
    <svg style="display: none;">

        <symbol viewBox="0 0 16 16" id="icon-login">
            <path
                d="M7.31 9.06l-.08.07-1.43 1.46a1.24 1.24 0 0 0-.23.32 1.17 1.17 0 0 0 .19 1.33 1.15 1.15 0 0 0 .95.37 1.18 1.18 0 0 0 .79-.37l1.85-1.86 1.72-1.72a1.15 1.15 0 0 0 .19-.27 1.11 1.11 0 0 0 .12-.6 1 1 0 0 0-.21-.58c-.14-.17-.29-.32-.44-.48L7.34 3.34a1.1 1.1 0 0 0-1-.28 1.12 1.12 0 0 0-.7.41 1.14 1.14 0 0 0-.27.67 1.19 1.19 0 0 0 .39 1l1.5 1.5.08.08H2.1a1.21 1.21 0 0 0-.72.42 1.15 1.15 0 0 0-.24 1 1.12 1.12 0 0 0 .39.62 1.14 1.14 0 0 0 .78.29h5zM12.51 8v3.93a.59.59 0 0 1-.26.5.67.67 0 0 1-.41.11h-1.27a1.18 1.18 0 0 0-.66.42 1.17 1.17 0 0 0 .21 1.67 1.1 1.1 0 0 0 .69.24h1a6 6 0 0 0 .64 0 2.32 2.32 0 0 0 .73-.24 3 3 0 0 0 .62-.42 3.14 3.14 0 0 0 .71-.86 2.88 2.88 0 0 0 .35-1.42v-8.2a2.51 2.51 0 0 0-.26-.9 3.05 3.05 0 0 0-.88-1.07 2.88 2.88 0 0 0-1.78-.62h-1.32a1.15 1.15 0 0 0-.65.37 1.12 1.12 0 0 0-.31.73 1.1 1.1 0 0 0 .18.67 1.13 1.13 0 0 0 1 .56h1.18a.62.62 0 0 1 .55.56v3.94z">
                <path
                    d="M7.31 9.06h-5a1.14 1.14 0 0 1-.78-.29 1.12 1.12 0 0 1-.39-.62 1.15 1.15 0 0 1 .24-1 1.21 1.21 0 0 1 .72-.45h5.24l-.08-.08-1.5-1.5a1.19 1.19 0 0 1-.39-1 1.14 1.14 0 0 1 .27-.67 1.12 1.12 0 0 1 .7-.41 1.1 1.1 0 0 1 1 .28l3.39 3.38c.15.15.3.31.44.48a1 1 0 0 1 .21.58 1.11 1.11 0 0 1-.12.6 1.15 1.15 0 0 1-.19.27l-1.72 1.75-1.84 1.86a1.18 1.18 0 0 1-.79.37 1.15 1.15 0 0 1-.95-.37 1.17 1.17 0 0 1-.19-1.33 1.24 1.24 0 0 1 .23-.32l1.43-1.44.08-.07z">
                    <path
                        d="M12.51 8V4.06a.62.62 0 0 0-.51-.57h-1.18a1.13 1.13 0 0 1-1-.56 1.1 1.1 0 0 1-.18-.67 1.12 1.12 0 0 1 .36-.75 1.15 1.15 0 0 1 .65-.37h1.32a2.88 2.88 0 0 1 1.78.62 3.05 3.05 0 0 1 .85 1.04 2.51 2.51 0 0 1 .26.9v8.2a2.88 2.88 0 0 1-.35 1.42 3.14 3.14 0 0 1-.71.86 3 3 0 0 1-.62.42 2.32 2.32 0 0 1-.73.24 5.94 5.94 0 0 1-.64 0h-1a1.1 1.1 0 0 1-.69-.24 1.17 1.17 0 0 1-.21-1.6 1.18 1.18 0 0 1 .66-.42h1.27a.67.67 0 0 0 .41-.11.59.59 0 0 0 .26-.5V8.04z">

        </symbol>
        <symbol viewBox="0 0 1920 1920" id="icon-comb">
                <style>
                    .st0{fill:#fff}.st1{fill:none;stroke:#231f20;stroke-width:50;stroke-linecap:round;stroke-linejoin:round;stroke-miterlimit:10}
                </style>
                <path class="st0" d="M1520.9 642.2H399.2c-111.4 0-196.7 99-180.1 209.2l74.1 493.5H378V925.1c0-27.8 22.5-50.3 50.3-50.3 13.9 0 26.5 5.6 35.6 14.7 9.1 9.1 14.7 21.7 14.7 35.6V1345h76.7V925.1c0-27.8 22.5-50.3 50.3-50.3 13.9 0 26.4 5.6 35.6 14.7 9.1 9.1 14.7 21.7 14.7 35.6V1345h76.7V925.1c0-27.8 22.5-50.3 50.3-50.3 13.9 0 26.5 5.6 35.6 14.7 9.1 9.1 14.7 21.7 14.7 35.6V1345h76.7V925.1c0-27.8 22.5-50.3 50.3-50.3 13.9 0 26.5 5.6 35.6 14.7 9.1 9.1 14.7 21.7 14.7 35.6V1345h76.7V925.1c0-27.8 22.5-50.3 50.3-50.3 13.9 0 26.4 5.6 35.6 14.7 9.1 9.1 14.7 21.7 14.7 35.6V1345h76.7V925.1c0-27.8 22.5-50.3 50.3-50.3 13.9 0 26.4 5.6 35.6 14.7 9.1 9.1 14.7 21.7 14.7 35.6V1345h76.7V925.1c0-27.8 22.5-50.3 50.3-50.3 13.9 0 26.4 5.6 35.6 14.7 9.1 9.1 14.7 21.7 14.7 35.6V1345h93.6l65.8-496.6c14.1-109.2-70.8-206.2-180.9-206.2z" id="Layer_2"/>
                <path class="st1" d="M1701.4 848.3l-65.8 496.6H1542V925.1c0-13.9-5.6-26.5-14.7-35.6-9.1-9.1-21.7-14.7-35.6-14.7-27.8 0-50.3 22.5-50.3 50.3V1345h-76.7V925.1c0-13.9-5.6-26.5-14.7-35.6-9.1-9.1-21.7-14.7-35.6-14.7-27.8 0-50.3 22.5-50.3 50.3V1345h-76.7V925.1c0-13.9-5.6-26.5-14.7-35.6-9.1-9.1-21.7-14.7-35.6-14.7-27.8 0-50.3 22.5-50.3 50.3V1345h-76.7V925.1c0-13.9-5.6-26.5-14.7-35.6-9.1-9.1-21.7-14.7-35.6-14.7-27.8 0-50.3 22.5-50.3 50.3V1345H833V925.1c0-13.9-5.6-26.5-14.7-35.6-9.1-9.1-21.7-14.7-35.6-14.7-27.8 0-50.3 22.5-50.3 50.3V1345h-76.7V925.1c0-13.9-5.6-26.5-14.7-35.6-9.1-9.1-21.7-14.7-35.6-14.7-27.8 0-50.3 22.5-50.3 50.3V1345h-76.7V925.1c0-13.9-5.6-26.5-14.7-35.6-9.1-9.1-21.7-14.7-35.6-14.7-27.8 0-50.3 22.5-50.3 50.3V1345H293l-74-493.6c-16.5-110.1 68.8-209.2 180.1-209.2h1121.7c110.2 0 195.1 97 180.6 206.1z" id="STROKES"/>
            
        </symbol>

    </svg>